<?xml version="1.0" encoding="utf-8"?>
<!-- Generator: Adobe Illustrator 22.0.1, SVG Export Plug-In . SVG Version: 6.00 Build 0)  -->
<svg version="1.1" id="Calque_1" xmlns="http://www.w3.org/2000/svg" xmlns:xlink="http://www.w3.org/1999/xlink" x="0px" y="0px"
	 viewBox="0 0 216 62" style="enable-background:new 0 0 216 62;" xml:space="preserve">
<style type="text/css">
	.st0{fill:#FFFFFF;}
</style>
<g>
	<path class="st0" d="M183.6,33.6c-50.8,0-101.4,0-152.1,0c0-2.4,0-4.8,0-7.3c50.7,0,101.4,0,152.1,0
		C183.6,28.8,183.6,31.1,183.6,33.6z"/>
	<path class="st0" d="M22,30.5c0-9.4,0-18.7,0-28.1c0-1.9,0.5-2.5,2.5-2.5c0.7,0,1.4,0,2.2,0c1.4,0,2,0.7,2.1,2.1c0,0.3,0,0.6,0,0.8
		c0,18.5,0,37,0,55.4c0,2.3-0.5,2.9-2.9,2.9c-3.8,0-3.9-0.1-3.9-3.9C22,48.4,22,39.4,22,30.5z"/>
	<path class="st0" d="M11.2,30.6c0-9.4,0-18.8,0-28.2c0-1.9,0.5-2.5,2.5-2.5c0.7,0,1.4,0,2.2,0c1.4,0,2,0.7,2.1,2.1
		c0,0.3,0,0.6,0,0.8c0,18.5,0,37,0,55.4c0,2.3-0.5,2.9-2.9,2.9c-3.8,0-3.9-0.1-3.9-3.9C11.2,48.4,11.2,39.5,11.2,30.6z"/>
	<path class="st0" d="M204.3,30.6c0,9.3,0,18.6,0,28c0,2.1-0.5,2.6-2.6,2.6c-0.7,0-1.4,0-2,0c-1.4-0.1-2-0.7-2.1-2.1
		c0-0.3,0-0.6,0-0.8c0-18.4,0-36.9,0-55.3c0-2.6,0.4-2.9,3-3c3.5-0.1,3.8,0.3,3.8,3.8C204.3,12.7,204.3,21.6,204.3,30.6z"/>
	<path class="st0" d="M193.5,30.6c0,9.3,0,18.6,0,28c0,2.1-0.5,2.6-2.6,2.6c-0.7,0-1.4,0-2,0c-1.4-0.1-2-0.7-2.1-2.1
		c0-0.3,0-0.6,0-0.8c0-18.4,0-36.9,0-55.3c0-2.6,0.4-2.9,3-3c3.5-0.1,3.8,0.3,3.8,3.8C193.5,12.7,193.5,21.6,193.5,30.6z"/>
	<path class="st0" d="M215.7,35.8c-2.7,0-5.3,0-8,0c0-3.5,0-6.9,0-10.4c2.7,0,5.3,0,8,0C215.7,28.8,215.7,32.2,215.7,35.8z"/>
	<path class="st0" d="M-0.1,25.4c2.7,0,5.3,0,8,0c0,3.5,0,6.9,0,10.4c-2.6,0-5.3,0-8,0C-0.1,32.3-0.1,28.9-0.1,25.4z"/>
</g>
</svg>
