<?xml version="1.0" encoding="utf-8"?>
<!-- Generator: Adobe Illustrator 22.0.1, SVG Export Plug-In . SVG Version: 6.00 Build 0)  -->
<svg version="1.1" id="Calque_1" xmlns="http://www.w3.org/2000/svg" xmlns:xlink="http://www.w3.org/1999/xlink" x="0px" y="0px"
	 viewBox="0 0 36 36" style="enable-background:new 0 0 36 36;" xml:space="preserve">
<style type="text/css">
	.st0{fill:#FFFFFF;}
</style>
<title>calendar-solid</title>
<path class="st0" d="M32.3,6h-4v3c0,1.2-1,2.2-2.2,2.2c-1.2,0-2.2-1-2.2-2.2c0,0,0,0,0,0V6H12.2v3c0,1.2-1,2.2-2.2,2.2
	c-1.2,0-2.2-1-2.2-2.2V6h-4C2.8,6,2,6.8,2,7.8c0,0,0,0,0,0.1v22.4c0,1,0.8,1.8,1.7,1.8c0,0,0,0,0,0h28.5c1,0,1.8-0.8,1.8-1.8
	c0,0,0,0,0,0V7.8C34,6.8,33.2,6,32.3,6C32.3,6,32.3,6,32.3,6z M10,26H8v-2h2V26z M10,21H8v-2h2V21z M10,16H8v-2h2V16z M16,26h-2v-2
	h2V26z M16,21h-2v-2h2V21z M16,16h-2v-2h2V16z M22,26h-2v-2h2V26z M22,21h-2v-2h2V21z M22,16h-2v-2h2V16z M28,26h-2v-2h2V26z M28,21
	h-2v-2h2V21z M28,16h-2v-2h2V16z"/>
<path class="st0" d="M10,10c0.6,0,1-0.4,1-1V3c0-0.6-0.4-1-1-1S9,2.4,9,3v6C9,9.6,9.4,10,10,10z"/>
<path class="st0" d="M26,10c0.6,0,1-0.4,1-1V3c0-0.6-0.4-1-1-1s-1,0.4-1,1v6C25,9.6,25.4,10,26,10z"/>
</svg>
