<?xml version="1.0" encoding="utf-8"?>
<!-- Generator: Adobe Illustrator 22.0.1, SVG Export Plug-In . SVG Version: 6.00 Build 0)  -->
<svg version="1.1" id="Calque_1" xmlns="http://www.w3.org/2000/svg" xmlns:xlink="http://www.w3.org/1999/xlink" x="0px" y="0px"
	 viewBox="0 0 36 36" style="enable-background:new 0 0 36 36;" xml:space="preserve">
<style type="text/css">
	.st0{fill:#FFFFFF;}
</style>
<title>chat-bubble-solid</title>
<path class="st0" d="M18,2.5c-8.8,0-16,6.3-16,14s7.2,14,16,14c1.7,0,3.3-0.2,4.9-0.7l5.5,3.5c0.5,0.3,1.1,0.2,1.4-0.3
	c0.1-0.2,0.2-0.3,0.2-0.5v-6.7c2.5-2.4,4-5.8,4-9.3C34,8.8,26.8,2.5,18,2.5z M26,16.5c0,0.6-0.4,1-1,1H11c-0.6,0-1-0.4-1-1
	c0-0.6,0.4-1,1-1h14C25.6,15.5,26,15.9,26,16.5z M22.8,21.5c0,0.6-0.4,1-1,1h-7.5c-0.6,0-1-0.4-1-1s0.4-1,1-1h7.5
	C22.3,20.5,22.8,20.9,22.8,21.5z M10.3,11.5c0-0.6,0.4-1,1-1h13.4c0.6,0,1,0.4,1,1s-0.4,1-1,1H11.3C10.7,12.5,10.3,12.1,10.3,11.5z"
	/>
</svg>
