<?xml version="1.0" encoding="utf-8"?>
<!-- Generator: Adobe Illustrator 22.0.1, SVG Export Plug-In . SVG Version: 6.00 Build 0)  -->
<svg version="1.1" id="Calque_1" xmlns="http://www.w3.org/2000/svg" xmlns:xlink="http://www.w3.org/1999/xlink" x="0px" y="0px"
	 viewBox="0 0 36 36" style="enable-background:new 0 0 36 36;" xml:space="preserve">
<style type="text/css">
	.st0{fill:#FFFFFF;}
</style>
<title>clipboard-solid</title>
<path class="st0" d="M29.3,5h-7.1c-0.6-1.8-2.2-3-4.1-3c-1.8,0.1-3.5,1.3-4.1,3H7C6,4.9,5.2,5.5,5,6.5c0,0.1,0,0.1,0,0.2v25.6
	C5,33.2,5.8,34,6.7,34c0,0,0,0,0,0h22.6c0.9,0,1.7-0.8,1.7-1.7c0,0,0,0,0,0V6.7C31,5.8,30.2,5,29.3,5C29.3,5,29.3,5,29.3,5z M11.3,8
	c0-0.6,0.4-1,1-1h3.4V6.3C15.7,5,16.8,4,18,4c1.3,0,2.3,1,2.3,2.3V7h3.4c0.6,0,1,0.4,1,1v2H11.3L11.3,8z M25,28H11v-2h14V28z M25,24
	H11v-2h14V24z M25,20H11v-2h14V20z M25,16H11v-2h14V16z"/>
</svg>
