<?xml version="1.0" encoding="utf-8"?>
<!-- Generator: Adobe Illustrator 22.0.1, SVG Export Plug-In . SVG Version: 6.00 Build 0)  -->
<svg version="1.1" id="Calque_1" xmlns="http://www.w3.org/2000/svg" xmlns:xlink="http://www.w3.org/1999/xlink" x="0px" y="0px"
	 viewBox="0 0 36 36" style="enable-background:new 0 0 36 36;" xml:space="preserve">
<style type="text/css">
	.st0{fill:#FFFFFF;}
</style>
<title>dashboard-solid</title>
<path class="st0" d="M18,4.3c-9.1,0-16.5,7.4-16.5,16.5c0,3.9,1.4,7.7,3.9,10.7l0.3,0.4h24.6l0.3-0.4c5.9-6.9,5-17.4-1.9-23.2
	C25.7,5.6,21.9,4.2,18,4.3z M26.6,13.7l-5.9,5.8c0.7,1.5,0.1,3.3-1.4,4c-1.5,0.7-3.3,0.1-4-1.4c-0.7-1.5-0.1-3.3,1.4-4
	c0.8-0.4,1.8-0.4,2.6,0l5.9-5.8L26.6,13.7z M3.6,19.9H7v2H3.6c0-0.4,0-0.8,0-1.2S3.5,20.2,3.6,19.9L3.6,19.9z M8.5,9.9l2.5,2.5
	l-1.5,1.4L7,11.3C7.4,10.8,7.9,10.3,8.5,9.9L8.5,9.9z M19,9.8h-2V6.3c0.3,0,0.6,0,1,0s0.7,0,1,0.1V9.8z M32.5,20.7
	c0,0.4,0,0.8,0,1.2h-3.5v-2h3.5C32.5,20.2,32.5,20.5,32.5,20.7z"/>
</svg>
