<?xml version="1.0" encoding="utf-8"?>
<!-- Generator: Adobe Illustrator 22.0.1, SVG Export Plug-In . SVG Version: 6.00 Build 0)  -->
<svg version="1.1" id="Calque_1" xmlns="http://www.w3.org/2000/svg" xmlns:xlink="http://www.w3.org/1999/xlink" x="0px" y="0px"
	 viewBox="0 0 36 36" style="enable-background:new 0 0 36 36;" xml:space="preserve">
<style type="text/css">
	.st0{fill:#999999;}
</style>
<title>note-line</title>
<path class="st0" d="M28,30H6V8h13.2l2-2H6C4.9,6,4,6.9,4,8v22c0,1.1,0.9,2,2,2h22c1.1,0,2-0.9,2-2V15l-2,2V30z"/>
<path class="st0" d="M33.5,5.8l-3.4-3.4c-0.6-0.6-1.6-0.6-2.3,0c0,0,0,0,0,0L14.2,16.3l-1.1,4.8c-0.2,0.9,0.4,1.7,1.3,1.9
	c0.1,0,0.2,0,0.3,0c0.1,0,0.2,0,0.4,0l4.9-1.1L33.5,8.1C34.2,7.5,34.2,6.5,33.5,5.8C33.5,5.8,33.5,5.8,33.5,5.8z M18.8,20.1
	l-3.7,0.8l0.9-3.6L26.3,6.9l2.8,2.8L18.8,20.1z M30.3,8.6l-2.8-2.8L29,4.2L31.8,7L30.3,8.6z"/>
</svg>
