<?xml version="1.0" encoding="utf-8"?>
<!-- Generator: Adobe Illustrator 22.0.1, SVG Export Plug-In . SVG Version: 6.00 Build 0)  -->
<svg version="1.1" id="Calque_1" xmlns="http://www.w3.org/2000/svg" xmlns:xlink="http://www.w3.org/1999/xlink" x="0px" y="0px"
	 viewBox="0 0 1792 1792" style="enable-background:new 0 0 1792 1792;" xml:space="preserve">
<style type="text/css">
	.st0{fill:none;stroke:#BFBFBF;stroke-width:40;stroke-miterlimit:10;}
	.st1{fill:#BFBFBF;}
</style>
<path class="st0" d="M1664,896c0,139.3-34.3,267.8-103,385.5s-161.8,210.8-279.5,279.5s-246.2,103-385.5,103s-267.8-34.3-385.5-103
	S299.7,1399.2,231,1281.5S128,1035.3,128,896s34.3-267.8,103-385.5S392.8,299.7,510.5,231S756.7,128,896,128s267.8,34.3,385.5,103
	s210.8,161.8,279.5,279.5S1664,756.7,1664,896z"/>
<path class="st1" d="M1246,946V846c0-13.5-4.9-25.3-14.8-35.2S1209.5,796,1196,796H996V596c0-13.5-4.9-25.3-14.8-35.2
	S959.5,546,946,546H846c-13.5,0-25.3,4.9-35.2,14.8S796,582.5,796,596v200H596c-13.5,0-25.3,4.9-35.2,14.8S546,832.5,546,846v100
	c0,13.5,4.9,25.3,14.8,35.2S582.5,996,596,996h200v200c0,13.5,4.9,25.3,14.8,35.2s21.6,14.8,35.2,14.8h100
	c13.5,0,25.3-4.9,35.2-14.8s14.8-21.6,14.8-35.2V996h200c13.5,0,25.3-4.9,35.2-14.8S1246,959.5,1246,946z"/>
</svg>
