<?xml version="1.0" encoding="utf-8"?>
<!-- Generator: Adobe Illustrator 22.0.1, SVG Export Plug-In . SVG Version: 6.00 Build 0)  -->
<svg version="1.1" id="Calque_1" xmlns="http://www.w3.org/2000/svg" xmlns:xlink="http://www.w3.org/1999/xlink" x="0px" y="0px"
	 viewBox="0 0 36 36" style="enable-background:new 0 0 36 36;" xml:space="preserve">
<style type="text/css">
	.st0{fill:#B2B2B2;}
</style>
<title>slider-line</title>
<path class="st0" d="M12,12.4c0-1.8-1.2-3.4-3-3.9V5c0-0.6-0.4-1-1-1S7,4.4,7,5v3.5C4.9,9,3.5,11.2,4,13.3c0.4,1.5,1.5,2.6,3,3V31
	c0,0.6,0.4,1,1,1s1-0.4,1-1V16.3C10.8,15.8,12,14.2,12,12.4z M8,14.4c-1.1,0-2-0.9-2-2s0.9-2,2-2s2,0.9,2,2C10,13.5,9.1,14.4,8,14.4
	C8,14.4,8,14.4,8,14.4L8,14.4z"/>
<path class="st0" d="M32,15.8c0-1.8-1.2-3.4-3-3.9V5c0-0.6-0.4-1-1-1s-1,0.4-1,1v6.9c-2.1,0.5-3.5,2.7-3,4.8c0.4,1.5,1.5,2.6,3,3V31
	c0,0.6,0.4,1,1,1s1-0.4,1-1V19.7C30.8,19.3,32,17.7,32,15.8z M28,17.8c-1.1,0-2-0.9-2-2s0.9-2,2-2s2,0.9,2,2
	C30,16.9,29.1,17.8,28,17.8C28,17.9,28,17.9,28,17.8L28,17.8z"/>
<path class="st0" d="M22,24.5c0-1.8-1.2-3.4-3-3.9V5c0-0.6-0.4-1-1-1s-1,0.4-1,1v15.6c-2.1,0.5-3.5,2.7-3,4.8c0.4,1.5,1.5,2.6,3,3
	V31c0,0.6,0.4,1,1,1s1-0.4,1-1v-2.6C20.8,27.9,22,26.3,22,24.5z M18,26.5c-1.1,0-2-0.9-2-2s0.9-2,2-2s2,0.9,2,2
	C20,25.6,19.1,26.5,18,26.5C18,26.5,18,26.5,18,26.5L18,26.5z"/>
</svg>
