<?xml version="1.0" encoding="utf-8"?>
<!-- Generator: Adobe Illustrator 22.0.1, SVG Export Plug-In . SVG Version: 6.00 Build 0)  -->
<svg version="1.1" id="Calque_1" xmlns="http://www.w3.org/2000/svg" xmlns:xlink="http://www.w3.org/1999/xlink" x="0px" y="0px"
	 viewBox="0 0 36 36" style="enable-background:new 0 0 36 36;" xml:space="preserve">
<style type="text/css">
	.st0{fill:#FFFFFF;}
</style>
<title>tasks-solid</title>
<path class="st0" d="M29.3,4.9h-7.2c-0.8-2.3-3.2-3.5-5.5-2.7c-1.3,0.4-2.3,1.4-2.7,2.7H7C6,4.8,5.2,5.5,5,6.4c0,0.1,0,0.1,0,0.2
	v25.6c0,0.9,0.8,1.7,1.7,1.7c0,0,0,0,0,0h22.6c0.9,0,1.7-0.8,1.7-1.7c0,0,0,0,0,0V6.6C31,5.7,30.2,4.9,29.3,4.9
	C29.3,4.9,29.3,4.9,29.3,4.9z M11.3,7.9c0-0.6,0.4-1,1-1h3.4V6.3C15.7,5,16.8,4,18,4c1.3,0,2.3,1,2.3,2.3V7h3.4c0.6,0,1,0.4,1,1v1.8
	H11.3L11.3,7.9z M25.8,17.2l-9.1,9.1l-5.2-5.2c-0.6-0.6-0.6-1.4,0-2s1.4-0.6,2,0l3.3,3.3l7.1-7.1c0.6-0.6,1.4-0.6,2,0
	S26.4,16.6,25.8,17.2L25.8,17.2L25.8,17.2z"/>
</svg>
