<?xml version="1.0" encoding="utf-8"?>
<!-- Generator: Adobe Illustrator 22.0.1, SVG Export Plug-In . SVG Version: 6.00 Build 0)  -->
<svg version="1.1" id="Calque_1" xmlns="http://www.w3.org/2000/svg" xmlns:xlink="http://www.w3.org/1999/xlink" x="0px" y="0px"
	 viewBox="0 0 1792 1792" style="enable-background:new 0 0 1792 1792;" xml:space="preserve">
<style type="text/css">
	.st0{fill:#96272D;}
</style>
<g>
	<path class="st0" d="M480,1663.5c-43.6,0-81.5-19.6-112.6-58.3c-31.1-38.7-46.9-86.2-46.9-141.2V511.5H224c-9.2,0-16.8-3-22.6-8.9
		c-5.9-5.9-8.9-13.5-8.9-22.6v-64c0-9.2,3-16.8,8.9-22.6c5.9-5.9,13.5-8.9,22.6-8.9h309.3l70.1-167.3c9.9-24.5,28-45.6,53.8-62.8
		c25.8-17.2,52.3-25.9,78.7-25.9h320c26.4,0,52.9,8.7,78.7,25.9c25.8,17.2,43.9,38.3,53.8,62.8l70.1,167.3H1568
		c9.2,0,16.8,3,22.6,8.9c5.9,5.9,8.9,13.5,8.9,22.6v64c0,9.2-3,16.8-8.9,22.6c-5.9,5.9-13.5,8.9-22.6,8.9h-96.5V1460
		c0,55-15.8,103.1-46.9,143.2c-31.1,40-69,60.3-112.6,60.3H480z M447.5,1460c0,14.7,2.4,28.3,7,40.7c4.7,12.3,9.6,21.5,14.6,27.2
		c5.1,5.8,8.7,8.7,10.9,8.7h832c2.2,0,5.7-2.8,10.9-8.7c5-5.7,9.9-14.8,14.6-27.2c4.7-12.3,7-26,7-40.7V511.5h-897V1460z
		 M737.9,255.5c-6.8,1.4-12.6,5.1-17.3,11.2l0,0.1l-49.3,117.8h449.5l-48.3-117.8l0-0.1c-4.7-6.1-10.5-9.8-17.3-11.2H737.9
		L737.9,255.5z M1120,1343.5c-9.2,0-16.8-3-22.6-8.9s-8.9-13.5-8.9-22.6V736c0-9.2,3-16.8,8.9-22.6c5.9-5.9,13.5-8.9,22.6-8.9h64
		c9.2,0,16.8,3,22.6,8.9c5.9,5.9,8.9,13.5,8.9,22.6v576c0,9.2-3,16.8-8.9,22.6s-13.5,8.9-22.6,8.9H1120z M864,1343.5
		c-9.2,0-16.8-3-22.6-8.9c-5.9-5.9-8.9-13.5-8.9-22.6V736c0-9.2,3-16.8,8.9-22.6c5.9-5.9,13.5-8.9,22.6-8.9h64
		c9.2,0,16.8,3,22.6,8.9c5.9,5.9,8.9,13.5,8.9,22.6v576c0,9.2-3,16.8-8.9,22.6s-13.5,8.9-22.6,8.9H864z M608,1343.5
		c-9.2,0-16.8-3-22.6-8.9c-5.9-5.9-8.9-13.5-8.9-22.6V736c0-9.2,3-16.8,8.9-22.6c5.9-5.9,13.5-8.9,22.6-8.9h64
		c9.2,0,16.8,3,22.6,8.9c5.9,5.9,8.9,13.5,8.9,22.6v576c0,9.2-3,16.8-8.9,22.6c-5.9,5.9-13.5,8.9-22.6,8.9H608z"/>
	<path d="M1056,129c26.3,0,52.7,8.7,78.4,25.8c25.7,17.1,43.8,38.2,53.6,62.6l70,167l0.3,0.6h0.7h309c9,0,16.5,2.9,22.3,8.7
		c5.8,5.8,8.7,13.3,8.7,22.3v64c0,9-2.9,16.5-8.7,22.3c-5.8,5.8-13.3,8.7-22.3,8.7h-96h-1v1v948c0,27.4-3.9,53.4-11.7,77.1
		c-7.8,23.7-19.6,45.8-35.1,65.8c-15.5,20-32.8,35.1-51.4,45.1c-18.6,10-39,15-60.8,15H480c-21.7,0-42.2-4.9-60.8-14.5
		c-18.6-9.6-35.9-24.3-51.4-43.6c-15.5-19.3-27.3-41-35.1-64.3c-7.8-23.4-11.7-49.1-11.7-76.6V512v-1h-1h-96c-9,0-16.5-2.9-22.3-8.7
		c-5.8-5.8-8.7-13.3-8.7-22.3v-64c0-9,2.9-16.5,8.7-22.3c5.8-5.8,13.3-8.7,22.3-8.7h309h0.7l0.3-0.6l70-167
		c9.9-24.4,27.9-45.4,53.6-62.5c25.7-17.1,52.1-25.8,78.4-25.8H1056 M670.5,385h1.5h448h1.5l-0.6-1.4l-48-117l-0.1-0.1l-0.1-0.1
		c-4.8-6.2-10.7-10-17.6-11.4l-0.1,0h-0.1H738h-0.1l-0.1,0c-6.9,1.4-12.8,5.2-17.6,11.4l-0.1,0.1l-0.1,0.1l-49,117L670.5,385
		 M480,1537h832c1.5,0,4.3-0.9,11.2-8.8c5.1-5.7,10-14.9,14.7-27.3c4.7-12.4,7.1-26.1,7.1-40.9V512v-1h-1H448h-1v1v948
		c0,14.7,2.4,28.5,7.1,40.9c4.7,12.4,9.6,21.6,14.7,27.3C475.7,1536.1,478.5,1537,480,1537 M1184,705c9,0,16.5,2.9,22.3,8.7
		c5.8,5.8,8.7,13.3,8.7,22.3v576c0,9-2.9,16.5-8.7,22.3c-5.8,5.8-13.3,8.7-22.3,8.7h-64c-9,0-16.5-2.9-22.3-8.7
		c-5.8-5.8-8.7-13.3-8.7-22.3V736c0-9,2.9-16.5,8.7-22.3c5.8-5.8,13.3-8.7,22.3-8.7H1184 M928,705c9,0,16.5,2.9,22.3,8.7
		c5.8,5.8,8.7,13.3,8.7,22.3v576c0,9-2.9,16.5-8.7,22.3c-5.8,5.8-13.3,8.7-22.3,8.7h-64c-9,0-16.5-2.9-22.3-8.7
		c-5.8-5.8-8.7-13.3-8.7-22.3V736c0-9,2.9-16.5,8.7-22.3c5.8-5.8,13.3-8.7,22.3-8.7H928 M672,705c9,0,16.5,2.9,22.3,8.7
		c5.8,5.8,8.7,13.3,8.7,22.3v576c0,9-2.9,16.5-8.7,22.3c-5.8,5.8-13.3,8.7-22.3,8.7h-64c-9,0-16.5-2.9-22.3-8.7
		c-5.8-5.8-8.7-13.3-8.7-22.3V736c0-9,2.9-16.5,8.7-22.3c5.8-5.8,13.3-8.7,22.3-8.7H672 M1056,128H736c-26.7,0-53,8.7-79,26
		s-44,38.3-54,63l-70,167H224c-9.3,0-17,3-23,9s-9,13.7-9,23v64c0,9.3,3,17,9,23s13.7,9,23,9h96v952c0,55.3,15.7,102.5,47,141.5
		s69,58.5,113,58.5h832c44,0,81.7-20.2,113-60.5s47-88.2,47-143.5V512h96c9.3,0,17-3,23-9s9-13.7,9-23v-64c0-9.3-3-17-9-23
		s-13.7-9-23-9h-309l-70-167c-10-24.7-28-45.7-54-63S1082.7,128,1056,128L1056,128z M672,384l49-117c4.7-6,10.3-9.7,17-11h317
		c6.7,1.3,12.3,5,17,11l48,117H672L672,384z M480,1536c-2,0-5.5-2.8-10.5-8.5s-9.8-14.7-14.5-27s-7-25.8-7-40.5V512h896v948
		c0,14.7-2.3,28.2-7,40.5s-9.5,21.3-14.5,27s-8.5,8.5-10.5,8.5H480L480,1536z M1184,704h-64c-9.3,0-17,3-23,9s-9,13.7-9,23v576
		c0,9.3,3,17,9,23s13.7,9,23,9h64c9.3,0,17-3,23-9s9-13.7,9-23V736c0-9.3-3-17-9-23S1193.3,704,1184,704L1184,704z M928,704h-64
		c-9.3,0-17,3-23,9s-9,13.7-9,23v576c0,9.3,3,17,9,23s13.7,9,23,9h64c9.3,0,17-3,23-9s9-13.7,9-23V736c0-9.3-3-17-9-23
		S937.3,704,928,704L928,704z M672,704h-64c-9.3,0-17,3-23,9s-9,13.7-9,23v576c0,9.3,3,17,9,23s13.7,9,23,9h64c9.3,0,17-3,23-9
		s9-13.7,9-23V736c0-9.3-3-17-9-23S681.3,704,672,704L672,704z"/>
</g>
</svg>
