<?xml version="1.0" encoding="utf-8"?>
<!-- Generator: Adobe Illustrator 22.0.1, SVG Export Plug-In . SVG Version: 6.00 Build 0)  -->
<svg version="1.1" id="Calque_1" xmlns="http://www.w3.org/2000/svg" xmlns:xlink="http://www.w3.org/1999/xlink" x="0px" y="0px"
	 viewBox="0 0 1792 1792" style="enable-background:new 0 0 1792 1792;" xml:space="preserve">
<style type="text/css">
	.st0{fill:#FFFFFF;}
</style>
<path class="st0" d="M616,896c-92.8,0-171.9-32.8-237.6-98.4S280,652.8,280,560s32.8-171.9,98.4-237.6S523.3,224,616,224
	s171.9,32.8,237.6,98.4S952,467.3,952,560s-32.8,171.9-98.4,237.6S708.8,896,616,896z M1456,1008h308c7.6,0,14.1,2.8,19.7,8.3
	s8.3,12.1,8.3,19.7v168c0,7.6-2.8,14.1-8.3,19.7s-12.1,8.3-19.7,8.3h-308v308c0,7.6-2.8,14.1-8.3,19.7s-12.1,8.3-19.7,8.3h-168
	c-7.6,0-14.1-2.8-19.7-8.3s-8.3-12.1-8.3-19.7v-308H924c-7.6,0-14.1-2.8-19.7-8.3s-8.3-12.1-8.3-19.7v-168c0-7.6,2.8-14.1,8.3-19.7
	s12.1-8.3,19.7-8.3h308V700c0-7.6,2.8-14.1,8.3-19.7s12.1-8.3,19.7-8.3h168c7.6,0,14.1,2.8,19.7,8.3s8.3,12.1,8.3,19.7V1008z
	 M812,1204c0,30.3,11.1,56.6,33.3,78.8s48.4,33.3,78.8,33.3h224v208.3c-39.7,29.2-89.5,43.8-149.6,43.8H233.6
	c-70.6,0-127.2-20.1-169.8-60.4S0,1412,0,1341.4c0-30.9,1-61.1,3.1-90.6s6.1-61.3,12.3-95.4s13.9-65.8,23.2-94.9
	s21.9-57.6,37.6-85.3s33.8-51.3,54.3-70.9s45.4-35.1,74.8-46.8s62-17.5,97.6-17.5c11.1,0,22.5,5,34.1,14.9
	c46.1,35.6,91.1,62.3,135.2,80.1s92,26.7,143.9,26.7s99.9-8.9,143.9-26.7s89.1-44.5,135.2-80.1c11.7-9.9,23-14.9,34.1-14.9
	c77,0,140.3,28,189.9,84H924c-30.3,0-56.6,11.1-78.8,33.3S812,1005.7,812,1036V1204z"/>
</svg>
