<?xml version="1.0" encoding="utf-8"?>
<!-- Generator: Adobe Illustrator 22.0.1, SVG Export Plug-In . SVG Version: 6.00 Build 0)  -->
<svg version="1.1" id="Calque_1" xmlns="http://www.w3.org/2000/svg" xmlns:xlink="http://www.w3.org/1999/xlink" x="0px" y="0px"
	 viewBox="0 0 36 36" style="enable-background:new 0 0 36 36;" xml:space="preserve">
<style type="text/css">
	.st0{fill:#FFFFFF;}
</style>
<title>users-solid</title>
<path class="st0" d="M12,16.1c-0.3,0-0.6,0-0.9,0c-2.4-0.1-4.7,0.8-6.4,2.5l-0.2,0.3v8.3h4.1v-4.7l0.6-0.6l0.3-0.3
	c1.3-1.3,2.9-2.3,4.7-2.9C13.2,18.1,12.4,17.2,12,16.1z"/>
<path class="st0" d="M31.3,18.6c-1.7-1.7-4-2.6-6.4-2.5c-0.4,0-0.7,0-1.1,0.1c-0.5,1-1.1,1.8-2,2.5c1.9,0.5,3.6,1.6,5,3l0.3,0.3
	l0.5,0.6v4.7h3.9v-8.3L31.3,18.6z"/>
<path class="st0" d="M11.1,14.2c0.1,0,0.2,0,0.3,0c-0.3-2.5,0.9-5,3.1-6.3C13.3,6,10.7,5.5,8.9,6.7s-2.4,3.8-1.2,5.7
	C8.4,13.5,9.7,14.2,11.1,14.2L11.1,14.2z"/>
<path class="st0" d="M24.4,13.4c0,0.2,0,0.5,0,0.7c0.2,0,0.4,0,0.6,0.1h0.2c2.3-0.1,4-2,3.9-4.3s-2-4-4.3-3.9
	c-1.4,0.1-2.6,0.8-3.3,2C23.3,9.2,24.4,11.2,24.4,13.4z"/>
<circle class="st0" cx="17.9" cy="13.4" r="4.5"/>
<path class="st0" d="M18.1,20.3c-2.6-0.1-5.2,0.9-7.1,2.7l-0.3,0.3v6.3c0,0.9,0.7,1.6,1.6,1.5c0,0,0,0,0,0h11.5
	c0.9,0,1.6-0.7,1.6-1.5c0,0,0,0,0,0v-6.3L25.2,23C23.3,21.2,20.7,20.2,18.1,20.3z"/>
</svg>
